<?xml version="1.0" encoding="UTF-8" standalone="no"?>
<svg
   xmlns:dc="http://purl.org/dc/elements/1.1/"
   xmlns:cc="http://creativecommons.org/ns#"
   xmlns:rdf="http://www.w3.org/1999/02/22-rdf-syntax-ns#"
   xmlns:svg="http://www.w3.org/2000/svg"
   xmlns="http://www.w3.org/2000/svg"
   xmlns:sodipodi="http://sodipodi.sourceforge.net/DTD/sodipodi-0.dtd"
   xmlns:inkscape="http://www.inkscape.org/namespaces/inkscape"
   viewBox="0 0 113.70474 113.70957"
   id="svg4284"
   version="1.1"
   inkscape:version="0.91 r13725"
   sodipodi:docname="rtxi-logo-circle.svg"
   width="113.70473"
   height="113.70957">
  <metadata
     id="metadata4335">
    <rdf:RDF>
      <cc:Work
         rdf:about="">
        <dc:format>image/svg+xml</dc:format>
        <dc:type
           rdf:resource="http://purl.org/dc/dcmitype/StillImage" />
        <dc:title></dc:title>
      </cc:Work>
    </rdf:RDF>
  </metadata>
  <sodipodi:namedview
     pagecolor="#ffffff"
     bordercolor="#666666"
     borderopacity="1"
     objecttolerance="10"
     gridtolerance="10"
     guidetolerance="10"
     inkscape:pageopacity="0"
     inkscape:pageshadow="2"
     inkscape:window-width="1920"
     inkscape:window-height="1057"
     id="namedview4333"
     showgrid="false"
     inkscape:zoom="0.43457604"
     inkscape:cx="-633.96213"
     inkscape:cy="295.50687"
     inkscape:window-x="0"
     inkscape:window-y="0"
     inkscape:window-maximized="1"
     inkscape:current-layer="svg4284"
     fit-margin-top="0"
     fit-margin-left="0"
     fit-margin-right="0"
     fit-margin-bottom="0" />
  <defs
     id="defs4286">
    <linearGradient
       id="linearGradient3764"
       x1="1"
       x2="47"
       gradientUnits="userSpaceOnUse"
       gradientTransform="matrix(0,-1,1,0,-1.5e-6,47.999998)">
      <stop
         style="stop-color:#e1e1e1;stop-opacity:1"
         id="stop4289" />
      <stop
         offset="1"
         style="stop-color:#ebebeb;stop-opacity:1"
         id="stop4291" />
    </linearGradient>
  </defs>
  <g
     id="g5090"
     transform="matrix(0.17941524,0,0,0.17941524,-0.17941524,-0.17941524)">
    <g
       transform="matrix(13.484655,0,0,13.484655,-12.484655,-12.484655)"
       id="g4293">
      <path
         inkscape:connector-curvature="0"
         id="path4295"
         style="opacity:0.05"
         d="m 36.31,5 c 5.859,4.062 9.688,10.831 9.688,18.5 0,12.426 -10.07,22.5 -22.5,22.5 -7.669,0 -14.438,-3.828 -18.5,-9.688 1.037,1.822 2.306,3.499 3.781,4.969 4.085,3.712 9.514,5.969 15.469,5.969 12.703,0 23,-10.298 23,-23 0,-5.954 -2.256,-11.384 -5.969,-15.469 C 39.81,7.306 38.132,6.037 36.31,5 Z m 4.969,3.781 c 3.854,4.113 6.219,9.637 6.219,15.719 0,12.703 -10.297,23 -23,23 -6.081,0 -11.606,-2.364 -15.719,-6.219 4.16,4.144 9.883,6.719 16.219,6.719 12.703,0 23,-10.298 23,-23 0,-6.335 -2.575,-12.06 -6.719,-16.219 z" />
      <path
         inkscape:connector-curvature="0"
         id="path4297"
         style="opacity:0.1"
         d="m 41.28,8.781 c 3.712,4.085 5.969,9.514 5.969,15.469 0,12.703 -10.297,23 -23,23 -5.954,0 -11.384,-2.256 -15.469,-5.969 4.113,3.854 9.637,6.219 15.719,6.219 12.703,0 23,-10.298 23,-23 0,-6.081 -2.364,-11.606 -6.219,-15.719 z" />
      <path
         inkscape:connector-curvature="0"
         id="path4299"
         style="opacity:0.2"
         d="M 31.25,2.375 C 39.865,5.529 46,13.792 46,23.505 c 0,12.426 -10.07,22.5 -22.5,22.5 -9.708,0 -17.971,-6.135 -21.12,-14.75 a 23,23 0 0 0 44.875,-7 23,23 0 0 0 -16,-21.875 z" />
    </g>
    <g
       style="fill:#f9f8f6;fill-opacity:1"
       transform="matrix(13.484655,0,0,13.484655,-12.484655,-12.484655)"
       id="g4301">
      <path
         inkscape:connector-curvature="0"
         id="path4303"
         style="fill:#f9f8f6;fill-opacity:1"
         d="M 24,1 C 36.703,1 47,11.297 47,24 47,36.703 36.703,47 24,47 11.297,47 1,36.703 1,24 1,11.297 11.297,1 24,1 Z" />
    </g>
    <g
       transform="matrix(13.484655,0,0,13.484655,-12.484655,-12.484655)"
       id="g4329">
      <path
         inkscape:connector-curvature="0"
         id="path4331"
         style="opacity:0.1"
         d="m 40.03,7.531 c 3.712,4.084 5.969,9.514 5.969,15.469 0,12.703 -10.297,23 -23,23 C 17.045,46 11.615,43.744 7.53,40.031 11.708,44.322 17.54,47 23.999,47 c 12.703,0 23,-10.298 23,-23 0,-6.462 -2.677,-12.291 -6.969,-16.469 z" />
    </g>
    <g
       id="g20"
       transform="matrix(1.348542,0,0,-1.348542,123.59606,342.08649)">
      <path
         d="m 0,0 c -4.764,-0.214 -0.46,-0.031 -4.03,-0.183 -4.215,-0.178 -8.119,-0.678 -11.73,-1.088 -3.635,-0.415 -6.965,-0.874 -9.991,-1.377 -3.055,-0.508 -5.787,-1.056 -8.214,-1.636 -2.442,-0.585 -4.578,-1.204 -6.427,-1.856 -1.861,-0.655 -3.435,-1.339 -4.743,-2.055 -1.315,-0.72 -2.362,-1.468 -3.164,-2.241 -0.54,-0.521 -0.982,-1.059 -1.32,-1.62 -0.339,-0.561 -0.576,-1.145 -0.708,-1.754 -0.131,-0.611 -0.155,-1.247 -0.07,-1.912 0.084,-0.669 0.279,-1.369 0.588,-2.098 0.251,-0.595 0.582,-1.209 0.996,-1.846 0.413,-0.638 0.91,-1.299 1.491,-1.979 0.583,-0.683 1.251,-1.387 2.009,-2.111 0.758,-0.728 1.603,-1.475 2.541,-2.244 1.607,-1.318 3.462,-2.619 5.56,-3.893 2.106,-1.286 4.456,-2.546 7.043,-3.781 2.597,-1.237 5.43,-2.449 8.494,-3.631 3.073,-1.186 6.373,-2.34 9.893,-3.458 3.526,-1.122 7.267,-2.204 11.209,-3.248 3.949,-1.046 8.095,-2.046 12.422,-3.001 4.332,-0.957 8.842,-1.863 13.511,-2.722 4.669,-0.86 9.497,-1.663 14.463,-2.415 9.907,-1.498 20.338,-2.772 31.145,-3.799 10.752,-1.025 21.841,-1.797 33.117,-2.311 11.186,-0.511 22.52,-0.761 33.862,-0.736 11.212,0.022 22.399,0.312 33.421,0.879 0.007,0 0.017,0 0.025,0.002 l 0.027,0 0.026,0 c 0.01,0.002 0.017,0.002 0.027,0.002 7.904,0.406 15.924,0.975 23.94,1.687 7.918,0.706 15.82,1.55 23.599,2.513 7.676,0.953 15.223,2.022 22.543,3.191 7.217,1.154 14.205,2.401 20.881,3.727 6.578,1.305 12.852,2.687 18.738,4.131 5.799,1.422 11.223,2.901 16.203,4.423 4.905,1.499 9.377,3.039 13.354,4.606 3.92,1.541 7.357,3.11 10.252,4.691 1.916,1.041 3.588,2.085 5.008,3.131 1.408,1.035 2.57,2.072 3.478,3.097 0.903,1.017 1.555,2.024 1.953,3.016 0.393,0.982 0.535,1.947 0.418,2.888 -0.064,0.538 -0.203,1.062 -0.418,1.575 -0.212,0.512 -0.498,1.015 -0.857,1.509 -0.359,0.492 -0.789,0.975 -1.291,1.453 -0.5,0.477 -1.074,0.946 -1.717,1.411 -0.15,0.108 -0.305,0.217 -0.463,0.326 -0.158,0.107 -0.322,0.216 -0.488,0.325 -0.168,0.108 -0.34,0.216 -0.518,0.324 -0.174,0.109 -0.355,0.219 -0.543,0.327 l -3.162,-9.49 c -2.095,2.275 -4.748,4.735 -7.763,7.274 -2.979,2.502 -6.311,5.082 -9.823,7.64 -3.462,2.523 -7.103,5.026 -10.752,7.416 -3.605,2.363 -7.222,4.621 -10.697,6.687 5.248,-1.329 10.93,-2.699 16.811,-4.046 5.892,-1.35 11.98,-2.676 18.033,-3.915 6.055,-1.243 12.066,-2.396 17.797,-3.396 5.726,-1.001 11.164,-1.847 16.074,-2.479 l -21.162,-2.427 c 0.732,-0.351 1.439,-0.704 2.117,-1.059 0.682,-0.357 1.334,-0.714 1.961,-1.075 0.629,-0.361 1.228,-0.721 1.801,-1.085 0.572,-0.362 1.115,-0.727 1.631,-1.093 1.091,-0.77 2.046,-1.539 2.873,-2.302 0.828,-0.767 1.527,-1.53 2.103,-2.285 0.58,-0.759 1.033,-1.51 1.371,-2.252 0.34,-0.744 0.559,-1.479 0.67,-2.201 0.114,-0.727 0.119,-1.448 0.026,-2.158 -0.094,-0.714 -0.287,-1.42 -0.577,-2.118 -0.291,-0.702 -0.675,-1.398 -1.15,-2.087 -0.478,-0.692 -1.045,-1.379 -1.695,-2.059 -1.315,-1.372 -2.973,-2.725 -4.946,-4.059 -1.992,-1.348 -4.308,-2.678 -6.922,-3.985 -2.64,-1.325 -5.587,-2.627 -8.808,-3.906 -3.26,-1.297 -6.799,-2.568 -10.596,-3.815 -7.736,-2.53 -16.529,-4.951 -26.142,-7.215 -9.844,-2.314 -20.543,-4.462 -31.821,-6.383 -11.541,-1.965 -23.662,-3.685 -36.048,-5.101 -12.643,-1.446 -25.518,-2.566 -38.258,-3.291 -8.746,-0.496 -17.608,-0.829 -26.528,-0.995 -9.006,-0.167 -18.055,-0.168 -27.094,-0.006 -9.112,0.165 -18.194,0.494 -27.186,0.989 -9.049,0.494 -17.99,1.153 -26.765,1.969 -8.811,0.824 -17.439,1.804 -25.826,2.936 -8.403,1.136 -16.547,2.425 -24.37,3.859 -7.822,1.435 -15.308,3.018 -22.398,4.743 -7.075,1.718 -13.739,3.573 -19.938,5.562 -4.111,1.319 -8.014,2.698 -11.682,4.131 -3.654,1.428 -7.072,2.911 -10.23,4.445 -3.143,1.526 -6.025,3.101 -8.625,4.723 -2.586,1.61 -4.887,3.267 -6.887,4.961 -1.09,0.926 -2.09,1.84 -2.994,2.742 -0.902,0.899 -1.711,1.785 -2.423,2.662 -0.71,0.87 -1.323,1.732 -1.839,2.583 -0.513,0.846 -0.931,1.681 -1.248,2.505 -0.39,1.01 -0.623,2.005 -0.695,2.98 -0.073,0.969 0.012,1.918 0.262,2.844 0.246,0.921 0.652,1.816 1.222,2.685 0.567,0.865 1.295,1.701 2.19,2.505 0.883,0.803 1.923,1.567 3.109,2.297 1.18,0.725 2.505,1.416 3.967,2.071 1.453,0.651 3.043,1.268 4.758,1.85 1.707,0.577 3.539,1.122 5.489,1.628 3.888,1.006 8.229,1.887 13.028,2.648 4.753,0.755 9.957,1.396 15.616,1.928 C -12.99,5.745 -6.506,6.167 0,6.486 L 0,0 Z"
         style="fill:#b74138;fill-opacity:1;fill-rule:nonzero;stroke:none"
         id="path22"
         inkscape:connector-curvature="0" />
    </g>
    <g
       id="g24"
       transform="matrix(1.348542,0,0,-1.348542,162.69514,310.67234)">
      <path
         d="M 0,0 5.812,0 C 16.711,0 22.16,5.69 22.16,17.072 22.16,28.454 16.711,34.147 5.812,34.147 L 0,34.147 0,0 Z m -28.771,-55.874 0,99.175 42.648,0 c 11.091,0 19.955,-2.338 26.592,-7.012 6.635,-4.674 9.953,-10.934 9.953,-18.78 0,-12.013 -7.119,-19.836 -21.36,-23.468 7.312,-2.713 12.047,-5.692 14.204,-8.937 2.154,-3.245 3.62,-9.542 4.394,-18.889 0.92,-11.142 2.785,-18.505 5.596,-22.089 l -31.242,0 c -1.987,4.602 -2.979,10.341 -2.979,17.22 l -0.144,5.884 -0.146,7.412 c 0,11.431 -4.602,17.145 -13.806,17.145 l -4.939,0 0,-47.661 -28.771,0 z"
         style="fill:#b74138;fill-opacity:1;fill-rule:nonzero;stroke:none"
         id="path26"
         inkscape:connector-curvature="0" />
    </g>
    <g
       id="g28"
       transform="matrix(1.348542,0,0,-1.348542,162.69514,310.67234)">
      <path
         d="M 0,0 5.812,0 C 16.711,0 22.16,5.69 22.16,17.072 22.16,28.454 16.711,34.147 5.812,34.147 L 0,34.147 0,0 Z m -28.771,-55.874 0,99.175 42.648,0 c 11.091,0 19.955,-2.338 26.592,-7.012 6.635,-4.674 9.953,-10.934 9.953,-18.78 0,-12.013 -7.119,-19.836 -21.36,-23.468 7.312,-2.713 12.047,-5.692 14.204,-8.937 2.154,-3.245 3.62,-9.542 4.394,-18.889 0.92,-11.142 2.785,-18.505 5.596,-22.089 l -31.242,0 c -1.987,4.602 -2.979,10.341 -2.979,17.22 l -0.144,5.884 -0.146,7.412 c 0,11.431 -4.602,17.145 -13.806,17.145 l -4.939,0 0,-47.661 -28.771,0 z"
         style="fill:none;stroke:#b74138;stroke-width:1;stroke-linecap:butt;stroke-linejoin:miter;stroke-miterlimit:4;stroke-dasharray:none;stroke-opacity:1"
         id="path30"
         inkscape:connector-curvature="0" />
    </g>
    <g
       id="g32"
       transform="matrix(1.348542,0,0,-1.348542,335.23085,252.2794)">
      <path
         d="m 0,0 0,-9.954 -24.338,0 0,-89.221 -30.514,0 0,89.221 -24.485,0 0,9.954 L 0,0 Z"
         style="fill:#b74138;fill-opacity:1;fill-rule:nonzero;stroke:none"
         id="path34"
         inkscape:connector-curvature="0" />
    </g>
    <g
       id="g36"
       transform="matrix(1.348542,0,0,-1.348542,335.23085,252.2794)">
      <path
         d="m 0,0 0,-9.954 -24.338,0 0,-89.221 -30.514,0 0,89.221 -24.485,0 0,9.954 L 0,0 Z"
         style="fill:none;stroke:#b74138;stroke-width:1;stroke-linecap:butt;stroke-linejoin:miter;stroke-miterlimit:4;stroke-dasharray:none;stroke-opacity:1"
         id="path38"
         inkscape:connector-curvature="0" />
    </g>
    <g
       id="g40"
       transform="matrix(1.348542,0,0,-1.348542,516.45438,161.18295)">
      <path
         d="m 0,0 -74.08,-109.982 31.603,-56.745 -31.968,0 -19.035,34.876 -21.141,-34.876 -12.934,0 27.971,45.336 -29.932,53.839 31.895,0 17.728,-32.332 L -28.375,-9.97 0,0 Z"
         style="fill:#b74138;fill-opacity:1;fill-rule:nonzero;stroke:none"
         id="path42"
         inkscape:connector-curvature="0" />
    </g>
    <path
       inkscape:connector-curvature="0"
       id="path46"
       style="fill:none;stroke:#b74138;stroke-width:1.34854198;stroke-linecap:butt;stroke-linejoin:miter;stroke-miterlimit:4;stroke-dasharray:none;stroke-opacity:1"
       d="m 516.45438,161.18295 -99.89999,148.31536 42.61797,76.52301 -43.11019,0 -25.66948,-47.03175 -28.50953,47.03175 -17.44204,0 37.72007,-61.1375 -40.36456,-72.60415 43.01175,0 23.90694,43.60106 69.47418,-121.2528 38.26488,-13.44498 z" />
    <path
       d="m 505.35588,386.02118 -38.80025,0 0,-133.74165 38.80025,0 0,133.74165 z"
       style="fill:#b74138;fill-opacity:1;fill-rule:nonzero;stroke:#b74138;stroke-width:1.34854198;stroke-linecap:butt;stroke-linejoin:miter;stroke-miterlimit:4;stroke-dasharray:none;stroke-opacity:1"
       id="path48"
       inkscape:connector-curvature="0" />
  </g>
</svg>
